<svg width="73" height="73" viewBox="0 0 73 73" fill="none" xmlns="http://www.w3.org/2000/svg">
<circle cx="36.5" cy="36.5" r="36.5" fill="#69DDCA"/>
<path fill-rule="evenodd" clip-rule="evenodd" d="M26.3097 36.224C27.3736 36.6094 28.207 37.2152 28.8099 38.0412C29.4128 38.8489 29.7143 39.8309 29.7143 40.9874C29.7143 42.6761 29.0582 43.9794 27.746 44.8972C26.4338 45.815 24.5365 46.2739 22.054 46.2739H12V27H21.5221C23.8982 27 25.7068 27.4589 26.9481 28.3767C28.1893 29.2762 28.8099 30.4969 28.8099 32.0388C28.8099 32.9566 28.5883 33.7826 28.145 34.5169C27.7194 35.2327 27.1077 35.8018 26.3097 36.224ZM17.2132 30.9374V34.6545H20.8305C22.6037 34.6545 23.4903 34.0304 23.4903 32.7822C23.4903 31.5524 22.6037 30.9374 20.8305 30.9374H17.2132ZM21.6285 42.3365C23.4726 42.3365 24.3947 41.6849 24.3947 40.3816C24.3947 39.0783 23.4726 38.4267 21.6285 38.4267H17.2132V42.3365H21.6285Z" fill="black"/>
<path fill-rule="evenodd" clip-rule="evenodd" d="M55.0047 27C57.2034 27 58.9146 27.6792 60.1381 29.0375C61.3793 30.3775 62 32.3233 62 34.8748V46.6594H56.7336V35.04C56.7336 33.8835 56.441 33.0116 55.8559 32.4242C55.2707 31.8185 54.4904 31.5156 53.5152 31.5156C52.4689 31.5156 51.6354 31.8368 51.015 32.4793C50.4119 33.1034 50.1107 34.0487 50.1107 35.3153V46.6594H44.8443V35.04C44.8443 33.8835 44.5693 33.0116 44.0198 32.4242C43.4878 31.8185 42.7517 31.5156 41.8121 31.5156C40.8014 31.5156 39.9945 31.8368 39.3917 32.4793C38.7886 33.1034 38.4874 34.0487 38.4874 35.3153V46.6594H33.221V27.3855H38.3278V29.5331C38.895 28.7071 39.6221 28.083 40.5088 27.6608C41.4132 27.2203 42.4591 27 43.6474 27C44.8709 27 45.9348 27.2294 46.8391 27.6884C47.7611 28.1473 48.5058 28.8173 49.0734 29.6983C49.7117 28.8173 50.5449 28.1473 51.5736 27.6884C52.6019 27.2294 53.7456 27 55.0047 27Z" fill="black"/>
</svg>
