<?xml version="1.0" encoding="utf-8"?>
<!-- Generator: Adobe Illustrator 23.0.0, SVG Export Plug-In . SVG Version: 6.00 Build 0)  -->
<svg fill="#ea289e" version="1.1" id="Capa_1" xmlns="http://www.w3.org/2000/svg" xmlns:xlink="http://www.w3.org/1999/xlink" x="0px" y="0px"
	 viewBox="0 0 484 484" style="enable-background:new 0 0 484 484;" xml:space="preserve">
<g>
	<g>
		<path d="M242,0C108.6,0,0,108.6,0,242s108.6,242,242,242s242-108.6,242-242S375.4,0,242,0z M242,433.9
			c-105.8,0-191.9-86.1-191.9-191.9S136.2,50.1,242,50.1S433.9,136.2,433.9,242S347.8,433.9,242,433.9z"/>
	</g>
</g>
<g>
	<path d="M337.2,102.9c-3.1-3.1-8.1-3.1-11.2,0l-28.1,28.1l56.1,56.1l28.1-28.1c3.1-3.1,3.1-8.1,0-11.2L337.2,102.9z"/>
	<path d="M143.9,284.9l56.1,56.1l142.8-142.8l-56.1-56.1L143.9,284.9z M303.6,181.4c3.1,3.1,3.1,8.1,0,11.2L194.4,301.8
		c-3.1,3.1-8.1,3.1-11.2,0c-3.1-3.1-3.1-8.1,0-11.2l109.1-109.1C295.4,178.3,300.5,178.3,303.6,181.4L303.6,181.4z"/>
	<path d="M134.9,298.3L114,361c-0.9,2.9-0.2,6,1.9,8.1c2.1,2.1,5.3,2.9,8.1,1.9l62.7-20.9L134.9,298.3z"/>
</g>
</svg>
