<?xml version="1.0" encoding="utf-8"?>
<!-- Generator: Adobe Illustrator 25.1.0, SVG Export Plug-In . SVG Version: 6.00 Build 0)  -->
<svg version="1.1" fill="#69DDCA" xmlns="http://www.w3.org/2000/svg" xmlns:xlink="http://www.w3.org/1999/xlink" x="0px" y="0px"
	 viewBox="0 0 512 512" style="enable-background:new 0 0 512 512;" xml:space="preserve">
<g>
	<g>
		<path d="M256,0C115,0,0,115.1,0,256c0,141,115.1,256,256,256c141,0,256-115,256-256C512,115,397,0,256,0z M256,482
			C131.4,482,30,380.6,30,256S131.4,30,256,30s226,101.4,226,226S380.6,482,256,482z"/>
	</g>
</g>
<g>
	<path d="M353.3,112.5c-0.3,0-0.6-0.2-0.9-0.2H215.8c-21,0-38.1,17.1-38.1,38.1v12.7c0,7,5.7,12.7,12.7,12.7s12.7-5.7,12.7-12.7
		v-12.7c0-7,5.7-12.7,12.7-12.7H275l-3.9,1.3c-10.3,3.6-17.2,13.3-17.2,24.1v190.6h-38.1c-7,0-12.7-5.7-12.7-12.7v-25.4
		c0-7-5.7-12.7-12.7-12.7s-12.7,5.7-12.7,12.7v25.4c0,21,17.1,38.1,38.1,38.1h38.1v12.7c0,14,11.4,25.4,25.4,25.4
		c2.7,0,5.3-0.4,8.1-1.3l76.4-25.5c10.3-3.6,17.2-13.3,17.2-24.1V137.8C381,123,368.2,111.3,353.3,112.5L353.3,112.5z"/>
	<path d="M212.1,230.5l-50.8-50.8c-3.6-3.6-9.1-4.7-13.9-2.8c-4.7,2-7.8,6.6-7.8,11.7v38.1H88.7c-7,0-12.7,5.7-12.7,12.7
		s5.7,12.7,12.7,12.7h50.8v38.1c0,5.1,3.1,9.8,7.8,11.7c4.8,2,10.2,0.9,13.9-2.8l50.8-50.8C217,243.5,217,235.4,212.1,230.5
		L212.1,230.5z"/>
</g>
</svg>
