<?xml version="1.0" encoding="utf-8"?>
<!-- Generator: Adobe Illustrator 25.1.0, SVG Export Plug-In . SVG Version: 6.00 Build 0)  -->
<svg version="1.1" fill="#69DDCA" xmlns="http://www.w3.org/2000/svg" xmlns:xlink="http://www.w3.org/1999/xlink" x="0px" y="0px"
	 viewBox="0 0 512 512" style="enable-background:new 0 0 512 512;" xml:space="preserve">
<g>
	<g>
		<path d="M256,0C115,0,0,115.1,0,256c0,141,115.1,256,256,256c141,0,256-115,256-256C512,115,397,0,256,0z M256,482
			C131.4,482,30,380.6,30,256S131.4,30,256,30s226,101.4,226,226S380.6,482,256,482z"/>
	</g>
</g>
<g>
	<g>
		<g>
			<path d="M353.5,194c-0.5-0.9-1.1-1.8-1.9-2.5c-0.8-0.7-1.7-1.2-2.6-1.6l-48.7-17.5c-3.4-1.2-7-1.9-10.8-1.8
				c-3.8,0-7.4,0.8-10.8,2l-36.9,14.1c-2.6,1-5.2,2.1-7.7,3.4c-0.9,0.4-1.7,0.9-2.5,1.4c-2.8-1.5-5.7-2.8-8.7-4
				c-9.7-3.6-19.6-4.8-29.2-4l-24.8,2.1c-1.1,0.1-2.2,0.4-3.2,1c-1,0.6-1.9,1.4-2.5,2.3l-55.9,79.6c-1.2,1.6-1.8,3.7-1.6,5.9
				c0.2,2.2,1.1,4.1,2.5,5.5l24.3,24.1c-1.3,2.4-2.2,5.2-2.4,8.1c-0.4,5.3,1.4,10.4,4.9,14.3c3.5,4,8.3,6.4,13.6,6.7
				c0.3,0,0.6,0,0.9,0c-2.2,7-0.4,14.9,5.2,20.3c3.4,3.2,7.7,5.1,12.3,5.4c-3,7.3-1.4,16.1,4.7,21.8c3.7,3.5,8.5,5.4,13.6,5.4
				c5.3,0,10.2-2.1,14-5.8c1.4,9,8.8,16.1,18.3,16.7c0.4,0,0.9,0,1.3,0c2.4,0,4.7-0.5,6.9-1.3c3.5,2.3,7.7,3.6,12.1,3.4
				c5.5-0.2,10.4-2.6,14-6.4l-13.4-13.4c0-0.3,0.1-0.6,0.1-0.9c0.2-2.6-0.2-5.2-1-7.5l27.4,27.3c3.5,1.4,7.2,2.1,11.1,2
				c7.8-0.3,14.8-4,19.8-9.7l2.7-3.2c0.3-0.3,0.4-0.6,0.6-1l-42.2-42.1c-1.1-1.1-1.2-2.9-0.2-4c1-1.1,2.6-1.2,3.7-0.1l50.2,50
				c2.7,1,5.7,1.4,8.7,1.3c6.9-0.3,13-3.5,17.4-8.6l6.6-7.7c1.5-1.8,2.4-4.2,2.3-6.7l-44-43.9c-1.1-1.1-1.2-2.9-0.2-4
				c1-1.1,2.6-1.2,3.7-0.1l44.2,44.1c1.8,0.5,3.7,0.7,5.7,0.6c5.6-0.2,10.7-2.9,14.2-7l1.8-2.1c3.6-4.1,5.7-9.7,5.4-15.8
				c-0.2-6.1-2.7-11.5-6.5-15.3l-11.8-11.8l3,3l31.9-28.8c1.4-1.2,2.3-2.9,2.7-4.9c0.4-2,0-4-0.8-5.7L353.5,194z M149,324.9
				c-3-0.2-5.7-1.5-7.7-3.8c-2-2.3-3-5.1-2.8-8.1c0.4-5.9,5.3-10.5,11.2-10.5c0.2,0,0.5,0,0.8,0c3,0.2,5.7,1.5,7.7,3.8
				c2,2.3,3,5.1,2.8,8.1C160.6,320.6,155.2,325.3,149,324.9z M168.2,350.6c-2.9,0-5.6-1.1-7.7-3.1c-4.4-4.2-4.7-11.3-0.6-15.8
				c0.2-0.2,4.6-4.9,6.7-7.1l1.1-1.2c2.1-2.3,5-3.5,8.2-3.5c2.9,0,5.6,1.1,7.7,3.1c2.2,2.1,3.4,4.8,3.5,7.8c0.1,3-1,5.8-3.1,8
				l-3.1,3.3c-0.7,0.7-1.4,1.5-2.1,2.2c-0.1,0.1-0.2,0.3-0.4,0.4c-0.5,0.6-1,1.1-1.4,1.5c-0.2,0.2-0.4,0.5-0.6,0.7
				c-0.1,0.1-0.1,0.1-0.1,0.1C174.1,349.4,171.3,350.6,168.2,350.6z M193.3,374.4c-2.1,2.2-5,3.4-8.1,3.4c-2.9,0-5.6-1.1-7.7-3.1
				c-4.4-4.2-4.7-11.3-0.6-15.7c0.1-0.1,2.7-2.8,5.6-5.9c0,0,0,0,0,0l2.2-2.3c3.8-4,5-5.3,5.5-5.8c0,0,0.1-0.1,0.1-0.1l0,0
				c0.4-0.4,0.6-0.6,0.6-0.6c2.1-2.3,5-3.5,8.2-3.5c2.9,0,5.6,1.1,7.7,3.1c2.2,2.1,3.4,4.9,3.5,7.8c0.1,3-1,5.9-3.1,8
				C206.9,359.9,193.7,373.9,193.3,374.4z M229.9,378.3c-0.4,6.1-5.7,10.9-11.9,10.5c-6.2-0.4-10.9-5.8-10.5-11.9
				c0.4-5.9,5.3-10.5,11.2-10.5c0.2,0,0.5,0,0.8,0C225.6,366.7,230.3,372.1,229.9,378.3z M355.3,310.8l-87.4-87.2l1-2.5
				c0.5-1.3,0.4-2.8-0.3-4.1c-0.7-1.3-2-2-3.3-2.1l-6.5-0.4l-7.1-0.4l-0.5,8.4c0,0.2-1.4,19.3-11.2,36.6
				c-10,17.7-23.3,23.9-25.3,24.2c-2.3,0.4-4.6,0.9-6.6,0.9c-1.4,0-2.4-0.2-3.3-0.6l-3.3-1.5c-1.4-0.6-2.5-1.8-3-3.3
				c-0.5-1.5-0.5-3.1,0-4.5l33.3-73l5.7-3.7l2.3-0.9h0l41.8-15.9c2.6-1,5.4-1.5,8.2-1.6l0.2,0c2.7,0,5.4,0.5,8,1.4l48.7,17.5
				l41.5,83.2L355.3,310.8z"/>
			<path d="M402.6,140.9l-32.9,16.4c-4.7,2.4-8.6,6.5-10.4,11.9c-1.8,5.4-1.2,11,1.1,15.8l43,86.2c2.4,4.7,6.5,8.6,11.9,10.4
				c5.4,1.8,11,1.3,15.8-1.1l32.8-16.4L402.6,140.9z M431.1,264.1c-4.4,0-7.9-3.5-7.9-7.9c0-4.4,3.5-7.9,7.9-7.9
				c4.4,0,7.9,3.5,7.9,7.9C439,260.6,435.5,264.1,431.1,264.1z"/>
			<path d="M158.7,167.1c-1-5.6-4.1-10.3-8.5-13.3l-30-21.1L41,245.3l30,21.1c4.3,3,9.8,4.4,15.4,3.4c5.6-1,10.3-4.1,13.3-8.5
				l55.4-78.9C158.2,178.2,159.6,172.7,158.7,167.1z M82.6,243.6c-0.7,4.3-4.7,7.3-9,6.6c-4.3-0.6-7.3-4.7-6.6-9
				c0.7-4.3,4.7-7.3,9-6.7C80.2,235.2,83.2,239.3,82.6,243.6z"/>
		</g>
	</g>
</g>
<circle cx="430.8" cy="255.9" r="9.6"/>
<circle cx="75" cy="241.5" r="9.6"/>
</svg>
