<?xml version="1.0" encoding="utf-8"?>
<!-- Generator: Adobe Illustrator 25.1.0, SVG Export Plug-In . SVG Version: 6.00 Build 0)  -->
<svg version="1.1" fill="#69DDCA" xmlns="http://www.w3.org/2000/svg" xmlns:xlink="http://www.w3.org/1999/xlink" x="0px" y="0px"
	 viewBox="0 0 512 512" style="enable-background:new 0 0 512 512;" xml:space="preserve">
<g>
	<g>
		<path d="M256,0C115,0,0,115.1,0,256c0,141,115.1,256,256,256c141,0,256-115,256-256C512,115,397,0,256,0z M256,482
			C131.4,482,30,380.6,30,256S131.4,30,256,30s226,101.4,226,226S380.6,482,256,482z"/>
	</g>
</g>
<g id="surface1">
	<path d="M255.7,200.8c-33,0-59.9,26.9-59.9,59.9c0,33,26.9,59.9,59.9,59.9c33,0,59.9-26.9,59.9-59.9
		C315.7,227.7,288.8,200.8,255.7,200.8z M291.3,249.5l-42.9,42.9c-1.8,1.8-4.2,2.7-6.5,2.7c-2.4,0-4.7-0.9-6.5-2.7L218.9,276
		c-3.6-3.6-3.6-9.4,0-13c3.6-3.6,9.4-3.6,13,0l9.9,9.9l36.4-36.4c3.6-3.6,9.4-3.6,13,0C294.9,240,294.9,245.9,291.3,249.5z"/>
	<path d="M389.3,188.8l0-0.2c-0.1-3-0.2-6.2-0.3-9.8c-0.3-17.3-14-31.7-31.4-32.7c-36.2-2-64.1-13.8-88-37.1l-0.2-0.2
		c-7.8-7.1-19.6-7.1-27.4,0l-0.2,0.2c-23.9,23.3-51.9,35.1-88,37.1c-17.3,1-31.1,15.3-31.4,32.7c-0.1,3.5-0.1,6.7-0.3,9.8l0,0.6
		c-0.7,36.9-1.6,82.8,13.8,124.4c8.4,22.9,21.2,42.8,38,59.2c19.1,18.6,44.1,33.4,74.4,44c1,0.3,2,0.6,3,0.8
		c1.5,0.3,2.9,0.4,4.4,0.4c1.5,0,3-0.1,4.4-0.4c1-0.2,2.1-0.5,3.1-0.8c30.2-10.6,55.2-25.4,74.3-44c16.8-16.4,29.5-36.3,38-59.2
		C390.9,271.7,390,225.8,389.3,188.8z M255.7,339.1c-43.2,0-78.4-35.2-78.4-78.4s35.2-78.4,78.4-78.4c43.2,0,78.4,35.2,78.4,78.4
		S299,339.1,255.7,339.1z"/>
</g>
</svg>
