<?xml version="1.0" encoding="utf-8"?>
<!-- Generator: Adobe Illustrator 25.1.0, SVG Export Plug-In . SVG Version: 6.00 Build 0)  -->
<svg version="1.1" fill="#69DDCA" xmlns="http://www.w3.org/2000/svg" xmlns:xlink="http://www.w3.org/1999/xlink" x="0px" y="0px"
	 viewBox="0 0 512 512" style="enable-background:new 0 0 512 512;" xml:space="preserve">
<g>
	<g>
		<path d="M256,0C115,0,0,115.1,0,256c0,141,115.1,256,256,256c141,0,256-115,256-256C512,115,397,0,256,0z M256,482
			C131.4,482,30,380.6,30,256S131.4,30,256,30s226,101.4,226,226S380.6,482,256,482z"/>
	</g>
</g>
<g>
	<g>
		<path d="M413,154.7H279.8c-3.2-14.8-16.8-26.4-32.4-26.4c-16,0-29.2,11.2-32.4,26.4H92.6c-4,0-7.2,3.2-7.2,7.2s3.2,7.2,7.2,7.2
			h122c3.2,14.8,16.8,26.4,32.4,26.4c16,0,29.2-11.2,32.4-26.4H413c4,0,7.2-3.2,7.2-7.2S417,154.7,413,154.7z M247.4,181.5
			c-10.4,0-19.2-8.4-19.2-19.2s8.4-19.2,19.2-19.2c10.4,0,19.2,8.4,19.2,19.2C266.6,172.7,258.2,181.5,247.4,181.5z"/>
	</g>
</g>
<g>
	<g>
		<path d="M413.4,253.5h-202c-3.2-14.8-16.8-26.4-32.4-26.4c-16,0-29.2,11.2-32.4,26.4h-54c-4,0-7.2,3.2-7.2,7.2s3.2,7.2,7.2,7.2h54
			c3.2,14.8,16.8,26.4,32.4,26.4c16,0,29.2-11.2,32.4-26.4h202c4,0,7.2-3.2,7.2-7.2S417.4,253.5,413.4,253.5z M179,279.9
			c-10.4,0-19.2-8.4-19.2-19.2c0-10.4,8.8-19.2,19.2-19.2c10.4,0,19.2,8.4,19.2,19.2C198.2,271.1,189.8,279.9,179,279.9z"/>
	</g>
</g>
<g>
	<g>
		<path d="M413,351.9h-62.8c-3.2-14.8-16.8-26.4-32.4-26.4c-16,0-29.2,11.2-32.4,26.4H92.6c-4,0-7.2,3.2-7.2,7.2s3.2,7.2,7.2,7.2
			H285c3.2,14.8,16.8,26.4,32.4,26.4c16,0,29.2-11.2,32.4-26.4H413c4,0,7.2-3.2,7.2-7.2S417,351.9,413,351.9z M317.4,378.7
			c-10.4,0-19.2-8.4-19.2-19.2s8.8-19.2,19.2-19.2s19.2,8.4,19.2,19.2S328.2,378.7,317.4,378.7z"/>
	</g>
</g>
<circle cx="247.4" cy="161.3" r="21.2"/>
<circle cx="177.5" cy="260" r="21.7"/>
<circle cx="317.4" cy="361" r="21.7"/>
</svg>
