<?xml version="1.0" encoding="utf-8"?>
<!-- Generator: Adobe Illustrator 25.1.0, SVG Export Plug-In . SVG Version: 6.00 Build 0)  -->
<svg version="1.1" fill="#69DDCA" xmlns="http://www.w3.org/2000/svg" xmlns:xlink="http://www.w3.org/1999/xlink" x="0px" y="0px"
	 viewBox="0 0 512 512" style="enable-background:new 0 0 512 512;" xml:space="preserve">
<g>
	<g>
		<path d="M256,0C114.8,0,0,114.8,0,256s114.8,256,256,256s256-114.8,256-256S397.2,0,256,0z M256,490.7
			C126.6,490.7,21.3,385.4,21.3,256S126.6,21.3,256,21.3S490.7,126.6,490.7,256S385.4,490.7,256,490.7z"/>
	</g>
</g>
<path d="M178.8,182.3c0,50.3,40.7,91.1,90.9,91.1s90.9-40.8,90.9-91.1s-40.7-91.1-90.9-91.1C219.6,91.2,178.9,132,178.8,182.3z
	 M269.7,188.1c-15.1,0.1-27.9-11.1-29.8-26.1c-1.9-15,7.6-29.1,22.2-32.8v-7.7c0-3.5,2.8-6.3,6.3-6.3s6.3,2.8,6.3,6.3v7.3
	c14.3,2.4,24.7,14.9,24.6,29.4c0,3.4-2.8,6.2-6.2,6.2c-3.4,0-6.2-2.8-6.2-6.2c0-9.5-7.7-17.3-17.2-17.3c-9.5,0-17.2,7.8-17.2,17.3
	c0,9.5,7.7,17.3,17.2,17.2c15.4,0.1,28.2,12,29.5,27.4c1.3,15.4-9.3,29.3-24.5,32v7.5c0,3.5-2.8,6.3-6.3,6.3s-6.3-2.8-6.3-6.3v-7.9
	c-13.2-3.5-22.4-15.4-22.5-29c0-3.5,2.9-6.4,6.4-6.4s6.4,2.9,6.4,6.4c0,8.8,6.7,16.2,15.4,17.2c0.3-0.1,0.7-0.1,1-0.1
	c0.5,0,0.9,0.1,1.4,0.2c9.4-0.2,16.9-8,16.8-17.5C286.9,195.6,279.2,188,269.7,188.1z"/>
<path d="M410.1,295.4c0,0-0.1,0-0.1,0.1l-58.5,27.7c0.6,3.2,0.9,6.5,0.8,9.9c-0.1,3.4-2.9,6.1-6.3,6.1c-0.1,0-0.1,0-0.2,0l-85.6-2.4
	c-3.5-0.1-6.2-3-6.1-6.5c0.1-3.5,3-6.2,6.5-6.1l78.7,2.2c-2.6-15.3-15.6-26.6-31.1-27.1l-52.1-1.4c-10.3-0.3-20.4-2.9-29.5-7.6
	l-5.3-2.7c-26-13.6-57.4-11.8-81.7,4.6l-2.1,75.9l8.9-4.8c8.9-4.8,19.3-5.9,29-3.2l88.4,24.9c17,3.5,34.7,1.5,50.6-5.7l122.4-79.4
	C429.8,292.6,419,290.8,410.1,295.4z"/>
<path d="M80,381.2l3.1-113l44.5,1.2l-3.1,113L80,381.2z"/>
</svg>
