<?xml version="1.0" encoding="utf-8"?>
<!-- Generator: Adobe Illustrator 25.1.0, SVG Export Plug-In . SVG Version: 6.00 Build 0)  -->
<svg version="1.1" fill="#69DDCA" xmlns="http://www.w3.org/2000/svg" xmlns:xlink="http://www.w3.org/1999/xlink" x="0px" y="0px"
	 viewBox="0 0 512 512" style="enable-background:new 0 0 512 512;" xml:space="preserve">
<g>
	<g>
		<path d="M256,0C115,0,0,115.1,0,256c0,141,115.1,256,256,256c141,0,256-115,256-256C512,115,397,0,256,0z M256,482
			C131.4,482,30,380.6,30,256S131.4,30,256,30s226,101.4,226,226S380.6,482,256,482z"/>
	</g>
</g>
<g>
	<g>
		<path d="M180.6,326.6h-55c-5,0-9,4.5-9,10.1V407h72.9v-70.4C189.6,331.1,185.5,326.6,180.6,326.6z"/>
	</g>
</g>
<g>
	<g>
		<path d="M270.2,266.2h-53.8c-5,0-9,4.5-9,10.1V407h71.7V276.3C279.2,270.7,275.1,266.2,270.2,266.2z"/>
	</g>
</g>
<g>
	<g>
		<path d="M402,187.4l-62.7-80.4c-3.5-3.9-9.2-3.9-12.7,0l-62.7,80.4c-2.6,2.9-3.3,7.2-1.9,11c1.4,3.8,4.7,6.2,8.3,6.2h26.9V407
			h71.7V204.6h26.9c3.6,0,6.9-2.4,8.3-6.2C405.3,194.6,404.5,190.3,402,187.4z"/>
	</g>
</g>
</svg>
