<?xml version="1.0" encoding="utf-8"?>
<!-- Generator: Adobe Illustrator 25.1.0, SVG Export Plug-In . SVG Version: 6.00 Build 0)  -->
<svg fill="#FF009E"  version="1.1" id="Capa_1" xmlns="http://www.w3.org/2000/svg" xmlns:xlink="http://www.w3.org/1999/xlink" x="0px" y="0px"
	 viewBox="0 0 512 512" style="enable-background:new 0 0 512 512;" xml:space="preserve">
<g>
	<g>
		<path d="M256,0C114.8,0,0,114.8,0,256s114.8,256,256,256s256-114.8,256-256S397.2,0,256,0z M256,490.7
			C126.6,490.7,21.3,385.4,21.3,256S126.6,21.3,256,21.3S490.7,126.6,490.7,256S385.4,490.7,256,490.7z"/>
	</g>
</g>
<g>
	<g>
		<path d="M380.9,381.9H136.5V137.6c0-3-2.4-5.4-5.4-5.4s-5.4,2.4-5.4,5.4v249.8c0,3,2.4,5.4,5.4,5.4h249.8c3,0,5.4-2.4,5.4-5.4
			C386.3,384.3,383.9,381.9,380.9,381.9z"/>
	</g>
</g>
<g>
	<g>
		<path d="M207.1,262.5h-54.3c-3,0-5.4,2.4-5.4,5.4v97.7c0,3,2.4,5.4,5.4,5.4h54.3c3,0,5.4-2.4,5.4-5.4v-97.7
			C212.6,264.9,210.1,262.5,207.1,262.5z"/>
	</g>
</g>
<g>
	<g>
		<path d="M294,132.1h-54.3c-3,0-5.4,3.3-5.4,7.5v224c0,4.1,2.4,7.5,5.4,7.5H294c3,0,5.4-3.3,5.4-7.5v-224
			C299.4,135.5,297,132.1,294,132.1z"/>
	</g>
</g>
<g>
	<g>
		<path d="M380.9,169.8h-54.3c-3,0-5.4,2-5.4,4.6v192.1c0,2.5,2.4,4.6,5.4,4.6h54.3c3,0,5.4-2,5.4-4.6V174.4
			C386.3,171.8,383.9,169.8,380.9,169.8z"/>
	</g>
</g>
</svg>
