<?xml version="1.0" encoding="utf-8"?>
<!-- Generator: Adobe Illustrator 25.1.0, SVG Export Plug-In . SVG Version: 6.00 Build 0)  -->
<svg version="1.1" fill="#FF009E" xmlns="http://www.w3.org/2000/svg" xmlns:xlink="http://www.w3.org/1999/xlink" x="0px" y="0px"
	 viewBox="0 0 512 512" style="enable-background:new 0 0 512 512;" xml:space="preserve">
<style type="text/css">
	.st0{fill:#FFFFFF;}
</style>
<g>
	<g>
		<path d="M256,0C114.8,0,0,114.8,0,256s114.8,256,256,256s256-114.8,256-256S397.2,0,256,0z M256,490.7
			C126.6,490.7,21.3,385.4,21.3,256S126.6,21.3,256,21.3S490.7,126.6,490.7,256S385.4,490.7,256,490.7z"/>
	</g>
</g>
<g>
	<g>
		<path d="M240.8,97.1c-64.6,0-117.2,52.6-117.2,117.2c0,21.8,6,43.1,17.5,61.6l93,149.9c1.8,2.9,4.9,4.6,8.3,4.6c0,0,0.1,0,0.1,0
			c3.4,0,6.6-1.8,8.3-4.7l90.7-151.4c10.8-18.1,16.5-38.9,16.5-60C358,149.7,305.4,97.1,240.8,97.1z M324.7,264.3L242.3,402
			l-84.6-136.3c-9.5-15.4-14.7-33.1-14.7-51.3c0-53.9,43.9-97.8,97.8-97.8s97.7,43.9,97.7,97.8C338.5,232,333.7,249.3,324.7,264.3z"
			/>
	</g>
</g>
<g>
	<g>
		<path d="M240.8,155.7c-32.3,0-58.6,26.3-58.6,58.6c0,32.1,25.9,58.6,58.6,58.6c33.1,0,58.6-26.8,58.6-58.6
			C299.4,182,273.1,155.7,240.8,155.7z M240.8,253.5c-21.7,0-39.2-17.6-39.2-39.2c0-21.5,17.7-39.2,39.2-39.2s39.1,17.7,39.1,39.2
			C279.9,235.6,262.8,253.5,240.8,253.5z"/>
	</g>
</g>
<path d="M368,399.7l-32.1-33.4c8.3-9.8,12.8-22.2,12.8-35c0-30.1-24.5-54.5-54.5-54.5s-54.5,24.5-54.5,54.5s24.5,54.5,54.5,54.5
	c11.3,0,22-3.4,31.2-9.9l32.4,33.7c1.4,1.4,3.2,2.2,5.1,2.2c1.8,0,3.6-0.7,4.9-2C370.6,407,370.7,402.5,368,399.7z M294.2,290.9
	c22.2,0,40.3,18.1,40.3,40.3c0,22.2-18.1,40.3-40.3,40.3s-40.3-18.1-40.3-40.3C253.9,309,271.9,290.9,294.2,290.9z"/>
<circle class="st0" cx="292.6" cy="331.1" r="39.8"/>
<circle class="st0" cx="294.8" cy="330.1" r="39.8"/>
</svg>
