<?xml version="1.0" encoding="utf-8"?>
<svg width="53" height="53" viewBox="0 0 53 53" fill="none" xmlns="http://www.w3.org/2000/svg">
<path d="M30.9167 2.65002H22.0834C21.5958 2.65002 21.2001 3.04576 21.2001 3.53332C21.2001 4.02088 21.5958 4.41662 22.0834 4.41662H30.9167C31.4043 4.41662 31.8 4.02088 31.8 3.53332C31.8 3.04576 31.4043 2.65002 30.9167 2.65002Z" fill="white"/>
<path d="M37.1 2.65002H36.2167C35.7291 2.65002 35.3334 3.04576 35.3334 3.53332C35.3334 4.02088 35.7291 4.41662 36.2167 4.41662H37.1C37.5876 4.41662 37.9833 4.02088 37.9833 3.53332C37.9833 3.04576 37.5876 2.65002 37.1 2.65002Z" fill="white"/>
<path d="M27.5971 45.05H25.4038C24.0602 45.05 22.9667 46.1435 22.9667 47.4871V47.9137C22.9667 49.2573 24.0602 50.35 25.4029 50.35H27.5962C28.9398 50.35 30.0333 49.2573 30.0333 47.9137V47.4871C30.0333 46.1435 28.9398 45.05 27.5971 45.05ZM28.2667 47.9137C28.2667 48.283 27.9664 48.5833 27.5972 48.5833H25.4038C25.0337 48.5833 24.7333 48.283 24.7333 47.9137V47.4871C24.7333 47.117 25.0336 46.8166 25.4038 46.8166H27.5962C27.9664 46.8166 28.2667 47.1169 28.2667 47.4871V47.9137V47.9137Z" fill="white"/>
<path fill-rule="evenodd" clip-rule="evenodd" d="M38.3243 0H14.6766C12.9161 0 11.4833 1.43276 11.4833 3.19325V23.1268H13.25V3.19325C13.25 2.40705 13.8895 1.7667 14.6766 1.7667H38.3234C39.1104 1.7667 39.7499 2.40715 39.7499 3.19325V13.5581H41.5166V3.19325C41.5167 1.43276 40.084 0 38.3243 0ZM11.4833 32.0465V49.8068C11.4833 51.5672 12.9161 53 14.6766 53H38.3234C40.0838 53 41.5166 51.5672 41.5166 49.8077V22.0465H39.7499L39.75 49.8068C39.75 50.593 39.1105 51.2333 38.3243 51.2333H14.6766C13.8895 51.2333 13.25 50.5928 13.25 49.8076V32.0465H11.4833Z" fill="white"/>
<path fill-rule="evenodd" clip-rule="evenodd" d="M40.6333 5.29999H12.3667C11.8791 5.29999 11.4834 5.69573 11.4834 6.18329V23.4186H13.25V7.06669H39.75V13.5581H41.5167V6.18329C41.5167 5.69573 41.121 5.29999 40.6333 5.29999ZM11.4834 32.0465V43.2833C11.4834 43.7708 11.8791 44.1666 12.3667 44.1666H40.6334C41.121 44.1666 41.5167 43.7708 41.5167 43.2833V21.5698H39.75V42.4H13.25V32.0465H11.4834Z" fill="white"/>
<path d="M46.3454 9.86047H30.4969C29.3121 9.86047 28.3488 10.8243 28.3488 12.0086V23.4653C28.3488 24.6501 29.3121 25.6134 30.4969 25.6134C32.0001 25.6134 32.2021 25.6134 32.2021 25.6134H32.6451V29.1937C32.6451 29.8324 33.4193 30.1479 33.8671 29.7002C35.8663 27.7005 34.4624 29.1049 37.7438 25.8235C37.8784 25.6889 38.0598 25.6134 38.2503 25.6134H46.3454C47.5297 25.6134 48.4935 24.6501 48.4935 23.4653C48.4935 16.7794 48.4935 18.7108 48.4935 12.0086C48.4935 10.8243 47.5297 9.86047 46.3454 9.86047ZM31.9291 14.1567H42.0492C42.4449 14.1567 42.7652 14.477 42.7652 14.8727C42.7652 15.2685 42.4449 15.5888 42.0492 15.5888H31.9291C31.5333 15.5888 31.213 15.2685 31.213 14.8727C31.213 14.477 31.5333 14.1567 31.9291 14.1567ZM39.185 21.3172H31.9291C31.5333 21.3172 31.213 20.9969 31.213 20.6012C31.213 20.2054 31.5333 19.8851 31.9291 19.8851H39.185C39.5807 19.8851 39.901 20.2054 39.901 20.6012C39.901 20.9969 39.5807 21.3172 39.185 21.3172ZM44.9133 18.453H31.9291C31.5333 18.453 31.213 18.1327 31.213 17.737C31.213 17.3412 31.5333 17.0209 31.9291 17.0209H44.9133C45.3091 17.0209 45.6294 17.3412 45.6294 17.737C45.6294 18.1327 45.3091 18.453 44.9133 18.453Z" fill="white"/>
<path d="M5.84578 19.7209H21.6943C22.8791 19.7209 23.8424 20.6847 23.8424 21.869V33.3258C23.8424 34.5106 22.8791 35.4739 21.6943 35.4739C20.1911 35.4739 19.9891 35.4739 19.9891 35.4739H19.5461V39.0541C19.5461 39.6928 18.7719 40.0084 18.3241 39.5606C16.3249 37.5609 17.7288 38.9653 14.4474 35.6839C14.3128 35.5493 14.1314 35.4739 13.9409 35.4739H5.84582C4.66149 35.4739 3.6977 34.5106 3.6977 33.3258C3.6977 26.6398 3.6977 28.5712 3.6977 21.869C3.69766 20.6847 4.66145 19.7209 5.84578 19.7209ZM20.2621 24.0172H10.142C9.74628 24.0172 9.42597 24.3375 9.42597 24.7332C9.42597 25.1289 9.74628 25.4492 10.142 25.4492H20.2621C20.6579 25.4492 20.9782 25.1289 20.9782 24.7332C20.9782 24.3375 20.6579 24.0172 20.2621 24.0172ZM13.0062 31.1776H20.2621C20.6579 31.1776 20.9782 30.8573 20.9782 30.4616C20.9782 30.0659 20.6579 29.7456 20.2621 29.7456H13.0062C12.6105 29.7456 12.2902 30.0659 12.2902 30.4616C12.2902 30.8573 12.6105 31.1776 13.0062 31.1776ZM7.27785 28.3134H20.2621C20.6579 28.3134 20.9782 27.9931 20.9782 27.5974C20.9782 27.2017 20.6579 26.8814 20.2621 26.8814H7.27785C6.88212 26.8814 6.56182 27.2017 6.56182 27.5974C6.56182 27.9931 6.88212 28.3134 7.27785 28.3134Z" fill="white"/>
</svg>
