<?xml version="1.0" encoding="utf-8"?>
<svg width="49" height="48" viewBox="0 0 49 48" fill="none" xmlns="http://www.w3.org/2000/svg">
<g clip-path="url(#clip0)">
<path d="M34.9657 10.2901C34.8837 8.43041 34.583 7.15189 34.1522 6.04404C33.7078 4.86808 33.024 3.81525 32.1282 2.94003C31.253 2.05118 30.1932 1.36051 29.0309 0.923032C27.9167 0.49223 26.6448 0.191497 24.7851 0.109503C22.9116 0.0205652 22.3168 0 17.5649 0C12.813 0 12.2182 0.0205652 10.3515 0.102559C8.49187 0.184553 7.21335 0.485553 6.10577 0.916088C4.92954 1.36051 3.87671 2.04424 3.00149 2.94003C2.11264 3.81525 1.42224 4.87503 0.984494 6.03737C0.553692 7.15189 0.252959 8.42347 0.170965 10.2832C0.0820276 12.1567 0.0614624 12.7515 0.0614624 17.5034C0.0614624 22.2553 0.0820276 22.8501 0.164021 24.7167C0.246015 26.5764 0.547015 27.8549 0.977816 28.9628C1.42224 30.1388 2.11264 31.1916 3.00149 32.0668C3.87671 32.9557 4.93649 33.6463 6.09882 34.0838C7.21335 34.5146 8.48492 34.8153 10.3449 34.8973C12.2112 34.9796 12.8063 34.9999 17.5582 34.9999C22.3101 34.9999 22.9049 34.9796 24.7715 34.8973C26.6312 34.8153 27.9097 34.5146 29.0173 34.0838C31.3695 33.1744 33.2292 31.3147 34.1386 28.9628C34.5691 27.8483 34.8701 26.5764 34.9521 24.7167C35.0341 22.8501 35.0547 22.2553 35.0547 17.5034C35.0547 12.7515 35.0477 12.1567 34.9657 10.2901ZM31.8139 24.58C31.7386 26.2893 31.4515 27.2123 31.2122 27.8277C30.624 29.3525 29.4139 30.5626 27.8891 31.1507C27.2738 31.39 26.3441 31.6771 24.6414 31.7522C22.7954 31.8344 22.2417 31.8547 17.5718 31.8547C12.9019 31.8547 12.3413 31.8344 10.5019 31.7522C8.7926 31.6771 7.86957 31.39 7.25421 31.1507C6.49544 30.8703 5.80477 30.4259 5.24416 29.8447C4.663 29.2771 4.21857 28.5934 3.93814 27.8346C3.69884 27.2193 3.41172 26.2893 3.33667 24.5869C3.25441 22.7409 3.23411 22.1869 3.23411 17.517C3.23411 12.8471 3.25441 12.2865 3.33667 10.4474C3.41172 8.73809 3.69884 7.81506 3.93814 7.1997C4.21857 6.44066 4.663 5.75025 5.25111 5.18938C5.81839 4.60821 6.50211 4.16379 7.26116 3.88362C7.87651 3.64432 8.80649 3.35721 10.5089 3.28189C12.3549 3.1999 12.9088 3.17933 17.5785 3.17933C22.2553 3.17933 22.809 3.1999 24.6484 3.28189C26.3577 3.35721 27.2807 3.64432 27.8961 3.88362C28.6549 4.16379 29.3455 4.60821 29.9061 5.18938C30.4873 5.75693 30.9317 6.44066 31.2122 7.1997C31.4515 7.81506 31.7386 8.74476 31.8139 10.4474C31.8959 12.2935 31.9165 12.8471 31.9165 17.517C31.9165 22.1869 31.8959 22.7339 31.8139 24.58Z" fill="white"/>
<path d="M17.5649 8.51239C12.6012 8.51239 8.57388 12.5394 8.57388 17.5034C8.57388 22.4674 12.6012 26.4944 17.5649 26.4944C22.5289 26.4944 26.5559 22.4674 26.5559 17.5034C26.5559 12.5394 22.5289 8.51239 17.5649 8.51239ZM17.5649 23.3357C14.3447 23.3357 11.7326 20.7239 11.7326 17.5034C11.7326 14.2829 14.3447 11.6712 17.5649 11.6712C20.7854 11.6712 23.3971 14.2829 23.3971 17.5034C23.3971 20.7239 20.7854 23.3357 17.5649 23.3357V23.3357Z" fill="white"/>
<path d="M29.0107 8.15691C29.0107 9.31605 28.0708 10.2559 26.9114 10.2559C25.7523 10.2559 24.8124 9.31605 24.8124 8.15691C24.8124 6.99751 25.7523 6.05792 26.9114 6.05792C28.0708 6.05792 29.0107 6.99751 29.0107 8.15691V8.15691Z" fill="white"/>
</g>
<g clip-path="url(#clip1)">
<path d="M48.4727 35.5263L38.977 45.0214C38.2738 45.7247 37.1332 45.7247 36.4293 45.0214L31.5275 40.1192C30.8241 39.4159 30.8241 38.2752 31.5275 37.5717C32.2311 36.8681 33.3717 36.8681 34.0749 37.5714L37.7035 41.2001L45.9249 32.9786C46.6285 32.275 47.7692 32.2756 48.4725 32.9786C49.1758 33.6821 49.1758 34.8224 48.4727 35.5263Z" fill="white"/>
</g>
<defs>
<clipPath id="clip0">
<rect width="35" height="35" fill="white"/>
</clipPath>
<clipPath id="clip1">
<rect width="18" height="18" fill="white" transform="translate(31 30)"/>
</clipPath>
</defs>
</svg>
