<?xml version="1.0" encoding="utf-8"?>
<svg width="52" height="52" viewBox="0 0 52 52" fill="none" xmlns="http://www.w3.org/2000/svg">
<path d="M32.7777 3.88895H2.22225C0.995033 3.88895 0 4.88392 0 6.11114V28.889C0 30.1161 0.995033 31.1111 2.22225 31.1111H32.7777C34.005 31.1111 35 30.1161 35 28.8889V6.11114C35 4.88392 34.005 3.88895 32.7777 3.88895ZM32.7777 6.11114V22.2728L28.3982 18.2911C27.74 17.6928 26.7277 17.7167 26.0988 18.3461L21.6665 22.7778L12.9272 12.3389C12.2666 11.55 11.0566 11.5422 10.3861 12.3217L2.22225 21.8095V6.11114H32.7777ZM23.3334 11.9445C23.3334 10.2567 24.701 8.8889 26.3888 8.8889C28.0766 8.8889 29.4444 10.2567 29.4444 11.9445C29.4444 13.6323 28.0767 15 26.3888 15C24.7011 15 23.3334 13.6323 23.3334 11.9445Z" fill="white"/>
<g clip-path="url(#clip0)">
<path d="M51.8965 26.7524C51.828 26.587 51.7285 26.4392 51.6048 26.3154C51.5967 26.3073 51.5886 26.306 51.5819 26.2993C51.4609 26.185 51.3224 26.0895 51.1665 26.025C51.0387 25.9725 50.9043 25.9564 50.7698 25.9443C50.7295 25.9416 50.6959 25.9228 50.6555 25.9228H39.8994C39.1559 25.9228 38.5548 26.5238 38.5548 27.2673C38.5548 28.0109 39.1558 28.6119 39.8994 28.6119H47.4233L36.7801 39.3156L32.7304 34.1311C32.4964 33.8313 32.1482 33.6457 31.7718 33.6175C31.3805 33.5892 31.0201 33.7224 30.7459 33.9819L20.42 43.7579C19.8808 44.2688 19.858 45.1199 20.3675 45.659C20.6338 45.9374 20.9887 46.0772 21.345 46.0772C21.6772 46.0772 22.0092 45.9548 22.2687 45.7101L31.5203 36.9506L35.5983 42.1713C35.8363 42.4765 36.1926 42.6634 36.5784 42.6862C36.9643 42.7077 37.3394 42.5652 37.6124 42.2923L49.311 30.5264V38.0235C49.311 38.767 49.912 39.368 50.6555 39.368C51.399 39.368 52.0001 38.767 52.0001 38.0235V27.2674V27.266C51.9987 27.0899 51.9637 26.9165 51.8965 26.7524Z" fill="white"/>
</g>
<defs>
<clipPath id="clip0">
<rect width="32" height="32" fill="white" transform="translate(20 20)"/>
</clipPath>
</defs>
</svg>
