<?xml version="1.0" encoding="utf-8"?>
<svg width="51" height="66" viewBox="0 0 51 66" fill="none" xmlns="http://www.w3.org/2000/svg">
<path d="M38.9876 28.2014C37.1934 28.2049 33.0393 28.1771 29.9088 27.7489C28.8502 27.6041 27.9087 27.4135 27.2151 27.1628C24.7731 26.2803 21.0105 23.1064 21.5622 22.1021C21.7712 21.7215 24.7567 25.0777 27.3296 25.7117C29.3025 26.1979 29.9424 24.4541 29.1231 23.7276C28.3086 23.0053 23.9542 18.0133 21.6635 16.6653C20.5844 16.0303 17.6489 14.9565 16.2213 14.45C15.7322 14.2765 5.92929 12.0592 4.84683 11.8113L4.27458 22.9824C4.27458 22.9824 9.85426 23.1342 10.5886 22.9824C11.3923 22.8164 12.4442 22.7208 13.0658 23.2719C14.041 24.1366 22.7086 31.1966 24.2077 31.6179C26.3523 32.2206 36.8767 31.2962 38.4536 30.8716C40.898 30.2131 40.734 28.1979 38.9876 28.2014Z" fill="white"/>
<g clip-path="url(#clip0)">
<path d="M27.1875 3.49997H43.8125C45.0182 3.49997 46 4.48172 46 5.6875V15.3125C46 16.5182 45.0182 17.5 43.8125 17.5H27.1875C25.9818 17.5 25 16.5182 25 15.3125V5.6875C25 4.48172 25.9818 3.49997 27.1875 3.49997ZM25.875 15.3125C25.875 16.0361 26.4638 16.625 27.1875 16.625H43.8125C44.5362 16.625 45.125 16.0361 45.125 15.3125V5.6875C45.125 4.96386 44.5362 4.375 43.8125 4.375H27.1875C26.4639 4.375 25.875 4.96386 25.875 5.6875V15.3125H25.875Z" fill="white"/>
<path d="M25.4375 6.12497H45.5625C45.804 6.12497 46 6.32098 46 6.56248V9.18748C46 9.42898 45.804 9.625 45.5625 9.625H25.4375C25.196 9.625 25 9.42898 25 9.18748V6.56248C25 6.32098 25.196 6.12497 25.4375 6.12497Z" fill="white"/>
<path d="M37.6875 12.25H42.9375C43.179 12.25 43.375 12.446 43.375 12.6875C43.375 12.929 43.179 13.125 42.9375 13.125H37.6875C37.446 13.125 37.25 12.929 37.25 12.6875C37.25 12.446 37.446 12.25 37.6875 12.25Z" fill="white"/>
<path d="M37.6875 14H42.9375C43.179 14 43.375 14.196 43.375 14.4375C43.375 14.679 43.179 14.875 42.9375 14.875H37.6875C37.446 14.875 37.25 14.679 37.25 14.4375C37.25 14.196 37.446 14 37.6875 14Z" fill="white"/>
<path d="M28.9375 11.375H29.8125C30.5361 11.375 31.125 11.9638 31.125 12.6875V13.5625C31.125 14.2861 30.5361 14.875 29.8125 14.875H28.9375C28.2139 14.875 27.625 14.2861 27.625 13.5625V12.6875C27.625 11.9639 28.2139 11.375 28.9375 11.375ZM28.5 13.5625C28.5 13.804 28.696 14 28.9375 14H29.8125C30.054 14 30.25 13.804 30.25 13.5625V12.6875C30.25 12.446 30.054 12.25 29.8125 12.25H28.9375C28.696 12.25 28.5 12.446 28.5 12.6875V13.5625Z" fill="white"/>
</g>
<path d="M12.0123 53.7675C13.8066 53.7711 17.9607 53.7433 21.0911 53.315C22.1497 53.1702 23.0913 52.9796 23.7849 52.729C26.2269 51.8465 29.9895 48.6725 29.4378 47.6682C29.2287 47.2877 26.2433 50.6438 23.6704 51.2779C21.6975 51.7641 21.0575 50.0203 21.8768 49.2938C22.6913 48.5714 27.0457 43.5795 29.3364 42.2314C30.4156 41.5964 33.351 40.5226 34.7787 40.0162C35.2677 39.8426 45.0707 37.6253 46.1531 37.3774L46.7254 48.5486C46.7254 48.5486 41.1457 48.7004 40.4114 48.5486C39.6076 48.3826 38.5557 48.287 37.9341 48.8381C36.959 49.7028 28.2913 56.7628 26.7922 57.1841C24.6477 57.7867 14.1233 56.8624 12.5464 56.4378C10.102 55.7793 10.266 53.7641 12.0123 53.7675Z" fill="white"/>
<path d="M12.5 50.25C7.66738 50.25 3.75 46.3326 3.75 41.5C3.75 36.6674 7.66738 32.75 12.5 32.75C17.3326 32.75 21.25 36.6674 21.25 41.5C21.25 46.3326 17.3326 50.25 12.5 50.25ZM9.4375 43.25V45H11.625V46.75H13.375V45H14.25C14.8302 45 15.3866 44.7695 15.7968 44.3593C16.207 43.9491 16.4375 43.3927 16.4375 42.8125C16.4375 42.2323 16.207 41.6759 15.7968 41.2657C15.3866 40.8555 14.8302 40.625 14.25 40.625H10.75C10.634 40.625 10.5227 40.5789 10.4406 40.4969C10.3586 40.4148 10.3125 40.3035 10.3125 40.1875C10.3125 40.0715 10.3586 39.9602 10.4406 39.8781C10.5227 39.7961 10.634 39.75 10.75 39.75H15.5625V38H13.375V36.25H11.625V38H10.75C10.1698 38 9.61344 38.2305 9.2032 38.6407C8.79297 39.0509 8.5625 39.6073 8.5625 40.1875C8.5625 40.7677 8.79297 41.3241 9.2032 41.7343C9.61344 42.1445 10.1698 42.375 10.75 42.375H14.25C14.366 42.375 14.4773 42.4211 14.5594 42.5031C14.6414 42.5852 14.6875 42.6965 14.6875 42.8125C14.6875 42.9285 14.6414 43.0398 14.5594 43.1219C14.4773 43.2039 14.366 43.25 14.25 43.25H9.4375Z" fill="white"/>
<defs>
<clipPath id="clip0">
<rect width="21" height="21" fill="white" transform="matrix(-1 0 0 1 46 0)"/>
</clipPath>
</defs>
</svg>
