<?xml version="1.0" encoding="utf-8"?>
<svg width="51" height="51" viewBox="0 0 51 51" fill="none" xmlns="http://www.w3.org/2000/svg">
<g clip-path="url(#clip0)">
<path d="M50.7922 21.7506L42.2562 10.6621C41.9402 10.252 40.937 10.2222 40.5 10.5L35.4158 13.9336H28.228C28.135 13.9336 28.0424 13.9535 27.9529 13.9796L22.3798 15.5838L16.597 14.0021L11.5 10C11.0704 9.72685 10.1333 10.1039 9.81386 10.5L0.221791 22.339C-0.117504 22.7592 -0.0614734 23.3728 0.347859 23.7249L5.29642 27.9836L9.73604 33.9664C8.43762 35.3497 8.46291 37.5313 9.81386 38.8827C10.4127 39.4811 11.1742 39.8192 11.9574 39.8978C11.9302 40.0753 11.9162 40.2554 11.9162 40.4383C11.9162 41.3823 12.2839 42.2698 12.9512 42.9371C13.6189 43.6048 14.5064 43.9725 15.4504 43.9725C15.4632 43.9725 15.4756 43.9717 15.4881 43.9713C15.4877 43.9954 15.4865 44.0192 15.4865 44.0433C15.4865 44.9873 15.8542 45.8748 16.5215 46.5425C17.1892 47.2098 18.0768 47.5775 19.0207 47.5775C19.2071 47.5775 19.3915 47.5623 19.5725 47.5343C19.6491 48.3203 19.988 49.0853 20.5888 49.686C21.2775 50.3751 22.1825 50.7195 23.0876 50.7195C23.9926 50.7195 24.8977 50.3751 25.5868 49.686L26.1272 49.1456L26.3541 49.3284C27.0373 49.9903 27.9245 50.321 28.8116 50.321C29.7167 50.321 30.6217 49.9767 31.3104 49.2876C32.0135 48.5845 32.3579 47.6565 32.3435 46.7331C33.2664 46.7472 34.1948 46.4032 34.8979 45.7005C35.6002 44.9978 35.9446 44.0705 35.931 43.1476C36.8924 43.1628 37.8045 42.7935 38.485 42.113C39.1881 41.4099 39.5325 40.4819 39.5181 39.5585C40.4418 39.5726 41.3694 39.2286 42.0725 38.5255C43.2725 37.3255 43.427 35.4707 42.5371 34.1014L45.7787 27.3124L50.6522 23.1187C51.0549 22.772 51.1163 22.1713 50.7922 21.7506ZM40.6581 37.1111C40.0601 37.7095 39.087 37.7092 38.4889 37.1111C38.4671 37.0893 38.4442 37.0691 38.4208 37.05L31.9906 30.5521C31.6019 30.1595 30.9688 30.1564 30.5762 30.5451C30.1836 30.9334 30.1805 31.5664 30.5688 31.959L37.0687 38.5267L37.071 38.529C37.6691 39.127 37.6691 40.1006 37.071 40.6986C36.7812 40.9885 36.396 41.148 35.9862 41.148C35.5761 41.148 35.1909 40.9885 34.9014 40.6986L30.5532 36.3053C30.1649 35.9127 29.5319 35.9096 29.1392 36.2979C28.7466 36.6866 28.7435 37.3197 29.1319 37.7123L33.4135 42.0383C33.4353 42.0655 33.4586 42.0916 33.4835 42.1165C34.0816 42.7145 34.0816 43.6881 33.4835 44.2861C32.8851 44.8841 31.9116 44.8838 31.3135 44.2857L28.9404 41.8877C28.5517 41.4951 27.9186 41.4916 27.526 41.8803C27.1334 42.2686 27.1303 42.9017 27.5187 43.2943L29.8256 45.625C29.8474 45.6522 29.8708 45.6787 29.896 45.7036C30.4941 46.3016 30.4941 47.2752 29.896 47.8732C29.298 48.4716 28.3249 48.4713 27.7268 47.8732C27.6579 47.8043 27.577 47.7514 27.5 47.6923C27.4346 47.6425 27.4175 47.6078 27.4502 47.5285C27.4832 47.4479 27.5327 47.3752 27.5657 47.2942C27.6023 47.204 27.6319 47.111 27.6607 47.0176C27.814 46.5234 27.8591 45.9919 27.7902 45.4791C27.6579 44.495 27.1167 43.6071 26.2965 43.0453C25.8533 42.7422 25.3405 42.5433 24.809 42.4686C25.0665 41.3324 24.7572 40.1006 23.9526 39.2504C23.2903 38.5508 22.3958 38.1582 21.4335 38.1449C21.3985 38.1446 21.3635 38.1446 21.3281 38.1449C21.3495 37.2267 21.0156 36.3142 20.3826 35.6454C19.7199 34.9458 18.8254 34.5532 17.8635 34.5399C17.5776 34.5361 17.2888 34.5664 17.0103 34.6306C16.8912 33.8022 16.4737 33.0357 15.8414 32.4874C15.213 31.9435 14.4227 31.6415 13.5811 31.6299C12.6951 31.617 11.8247 31.9439 11.1668 32.538L7.30106 27.3292L16.5492 16.0624L19.4966 16.8686L15.6472 23.6611C15.1819 24.4825 15.0644 25.4358 15.3161 26.3455C15.5679 27.2556 16.1585 28.0128 16.9799 28.4782C17.0313 28.5073 17.083 28.535 17.1355 28.5614C17.1394 28.5634 17.1433 28.5653 17.1476 28.5673C17.2857 28.6361 17.4278 28.6953 17.5717 28.7451C18.2421 28.9774 18.9663 29.0027 19.6647 28.8097C20.5744 28.5579 21.3316 27.9669 21.7969 27.1459L24.2985 22.7316L28.7649 23.0483L40.6585 34.9415C41.2562 35.5399 41.2562 36.5131 40.6581 37.1111ZM45.1071 25.2518L37.1866 15.1776L40.927 12.5L48.63 22.2203L45.1071 25.2518Z" fill="white"/>
</g>
<defs>
<clipPath id="clip0">
<rect width="51" height="51" fill="white"/>
</clipPath>
</defs>
</svg>
