<?xml version="1.0" encoding="utf-8"?>
<svg width="122" height="73" viewBox="0 0 122 73" fill="none" xmlns="http://www.w3.org/2000/svg">
<path fill-rule="evenodd" clip-rule="evenodd" d="M61 63.5559C54.5229 69.4247 45.929 73 36.5 73C16.3416 73 0 56.6584 0 36.5C0 16.3416 16.3416 0 36.5 0C45.929 0 54.5229 3.57528 61 9.44412C67.4771 3.57528 76.071 0 85.5 0C105.658 0 122 16.3416 122 36.5C122 56.6584 105.658 73 85.5 73C76.071 73 67.4771 69.4247 61 63.5559ZM62.9677 45.4613L65.5258 32.2774H68.6742L69.0677 33.6549C69.6581 33.0645 70.6419 32.2774 72.6097 32.2774L71.6258 35.8194C71.5917 35.8194 71.5558 35.819 71.5182 35.8186C70.6865 35.8101 69.0166 35.7929 67.8871 39.5581L66.7065 45.6581H62.9677V45.4613ZM83.0387 33.0645C82.0548 32.4742 81.4645 32.4742 80.2839 32.4742C79.1032 32.4742 76.3484 33.6548 75.9548 36.8032C75.3645 40.7387 77.9226 42.5097 81.6613 41.329L82.6452 44.6742C81.4645 45.2645 80.2839 45.4613 78.3161 45.4613C74.5774 45.4613 70.4452 42.1161 72.2161 35.229C73.5936 30.3097 77.9226 28.3419 80.4807 28.5387C83.4323 28.7355 84.6129 29.7193 85.4 30.7032L83.0387 33.0645ZM50.7677 28.7355H47.2258L44.471 41.329C43.8806 44.8709 46.6355 45.4613 47.4226 45.4613C48.4064 45.4613 49.3903 45.4613 50.1774 44.8709L50.571 41.9193C48.6032 42.3129 48.4064 41.329 48.6032 40.3451L49.5871 35.0322H51.3581L51.9484 32.2774H49.9806L50.7677 28.7355ZM101.142 32.0806H97.9936L95.4355 45.4613H99.1742L100.355 39.3613C101.483 35.6004 102.971 35.6133 103.959 35.6218C104.005 35.6222 104.05 35.6226 104.094 35.6226L105.077 32.0806C103.11 32.0806 102.126 32.8677 101.536 33.4581L101.142 32.0806ZM62.9677 39.5581L62.9711 39.5397C63.3668 37.3637 64.3274 32.0806 58.0484 32.0806C52.1452 32.0806 51.3581 37.9839 51.3581 38.771C51.1613 39.5581 51.1613 45.4613 57.4581 45.4613C59.0323 45.4613 61.1968 45.2645 62.1806 44.871L62.771 42.1161C62.1806 42.3129 60.2129 42.5097 58.6387 42.5097C57.2613 42.5097 54.9 42.5097 55.2935 39.5581H62.9677ZM44.471 32.4742L43.6839 35.229C43.2192 35.1361 42.5789 35.087 41.9704 35.0404C41.2905 34.9883 40.6502 34.9393 40.3387 34.8355C38.9613 35.229 39.5516 36.4097 40.3387 36.8032C40.8373 36.9278 41.4148 37.2893 41.9712 37.6376C42.2933 37.8392 42.6082 38.0364 42.8968 38.1806L42.9346 38.2182L42.964 38.2472L43.0245 38.3064C43.6168 38.8857 44.4437 39.6943 44.0774 41.5258C43.511 45.3022 39.502 45.2737 38.3095 45.2652C38.2592 45.2648 38.214 45.2645 38.1742 45.2645C36.7968 45.2645 35.6161 45.2645 33.8452 44.871L34.4355 42.1161C35.9403 42.6177 37.8713 42.551 38.7799 42.5197L38.7807 42.5196C38.9411 42.5141 39.0695 42.5097 39.1581 42.5097C40.3387 42.5097 40.5355 40.9355 39.5516 40.5419C39.2678 40.4 38.984 40.2325 38.6725 40.0487L38.6717 40.0482L38.6716 40.0482C38.1195 39.7223 37.4803 39.345 36.6 38.9677C35.8129 38.5742 34.829 37.5903 35.4194 35.0322C36.0097 31.8839 40.3387 31.8839 40.929 31.8839C41.3226 31.8839 42.7 31.8839 44.471 32.4742ZM20.071 45.4613L23.2194 29.3258H17.1194L12.7903 39.1645L12.0032 29.3258H6.29678L3.14839 45.4613H6.69033L9.05162 33.8516L10.0355 45.4613H13.3806L18.4968 34.0484L16.3323 45.4613H20.071ZM23.6129 35.4258L24.2032 32.4742C26.5645 32.0806 27.7452 32.0806 28.5323 32.2774C34.6323 32.2774 34.042 36.6064 33.6484 38.3774L32.271 45.6581H28.9258L28.5323 44.871C27.942 45.2645 27.3516 45.6581 25.5807 45.6581C23.8097 45.6581 21.4484 44.2806 21.8419 41.5258C22.7348 36.3474 28.1647 36.6784 29.8973 36.784L29.8974 36.784C30.074 36.7948 30.2122 36.8032 30.3032 36.8032C30.845 34.9974 29.5638 35.0145 28.4368 35.0296C28.3665 35.0305 28.2967 35.0314 28.2281 35.0319C28.1981 35.0321 28.1683 35.0322 28.1387 35.0322C27.5216 35.0322 26.5818 35.1398 25.6847 35.2424L25.6845 35.2425L25.6844 35.2425H25.6844C24.8655 35.3362 24.0824 35.4258 23.6129 35.4258ZM113.357 33.1253C113.541 33.3124 113.723 33.4976 113.932 33.6548L114.916 28.5387H118.655L115.506 45.4613H111.571L111.177 44.4774C110.39 44.8709 109.21 45.4613 108.029 45.4613C105.471 45.4613 103.11 41.9193 104.29 37.7871C105.963 32.0258 108.864 32.0569 110.839 32.0782L110.84 32.0782C110.956 32.0794 111.069 32.0806 111.177 32.0806C112.332 32.0806 112.852 32.61 113.357 33.1251L113.357 33.1253ZM85.5968 32.4742L85.0065 35.4258C85.476 35.4258 86.2591 35.3362 87.078 35.2425L87.0781 35.2425L87.0781 35.2425L87.0783 35.2424L87.0784 35.2424C87.9754 35.1398 88.9151 35.0322 89.5323 35.0322C89.6302 35.0322 89.7295 35.0309 89.829 35.0295L89.8297 35.0295C90.9297 35.0145 92.0576 34.9991 91.6968 36.8032C91.6058 36.8032 91.4676 36.7948 91.291 36.784L91.2908 36.784C89.5583 36.6784 84.1283 36.3474 83.2355 41.5258C82.842 44.2806 85.2033 45.6581 86.9742 45.6581C88.7452 45.6581 89.3355 45.2645 89.9258 44.871L90.3194 45.6581H93.6646L95.042 38.3774C95.4355 36.6064 96.0258 32.2774 89.9258 32.2774C89.3355 32.0806 87.9581 32.0806 85.5968 32.4742ZM59.8194 37H55.2936C55.6871 35.4258 56.671 34.6387 58.2452 34.6387C59.6226 34.6387 60.0161 35.6226 59.8194 37ZM29.7129 39.5581C29.5891 39.5581 29.4307 39.5407 29.2468 39.5207C28.5536 39.4449 27.4976 39.3296 26.5645 39.9516C25.3839 40.7387 24.9903 42.1161 26.3677 42.5097C27.5484 42.9032 29.1226 42.1161 29.5161 40.9355L29.7129 39.5581ZM112.555 35.8193C112.948 36.4097 113.145 37.9838 112.752 39.1645C111.965 40.7387 111.177 41.7225 109.8 41.7225C108.619 41.7225 107.439 40.3451 108.029 38.3774C108.816 35.4258 111.374 34.2451 112.555 35.8193ZM91.3032 39.5581C91.1794 39.5581 91.021 39.5407 90.8371 39.5207C90.1439 39.4449 89.0879 39.3296 88.1548 39.9516C86.9742 40.7387 86.5806 42.1161 87.9581 42.5097C89.1387 42.9032 90.9097 42.1161 91.1064 40.9355L91.3032 39.5581Z" fill="black"/>
</svg>
