<?xml version="1.0" encoding="utf-8"?>
<svg width="154" height="154" viewBox="0 0 154 154" fill="none" xmlns="http://www.w3.org/2000/svg">
<path d="M61.6624 54.0838L53.8359 100.013H66.3532L74.1862 54.0838H61.6624Z" fill="black"/>
<path d="M43.3405 54.1353L31.0807 85.4575L29.7736 80.7281C27.3558 75.0297 20.4919 66.8458 12.4336 61.6882L23.6438 99.9902L36.8887 99.9677L56.6015 54.1257L43.3405 54.1353Z" fill="black"/>
<path d="M25.0217 57.4224C24.2941 54.6247 22.1854 53.7909 19.5679 53.6911H0.160973L0 54.6054C15.1025 58.2692 25.0957 67.0969 29.2424 77.7115L25.0217 57.4224Z" fill="black"/>
<path d="M99.5556 62.8891C103.651 62.8247 106.619 63.7197 108.924 64.6469L110.054 65.1781L111.748 55.2235C109.269 54.2931 105.383 53.2951 100.534 53.2951C88.1651 53.2951 79.4468 59.5247 79.3792 68.4523C79.2987 75.049 85.5895 78.7321 90.3415 80.931C95.219 83.1846 96.8545 84.6173 96.8319 86.6294C96.7933 89.704 92.9428 91.1142 89.3467 91.1142C84.334 91.1142 81.6714 90.422 77.5602 88.7092L75.9472 87.9752L74.1862 98.2549C77.1159 99.5395 82.5214 100.644 88.1329 100.702C101.291 100.702 109.842 94.5461 109.932 85.0068C109.987 79.7881 106.648 75.8056 99.4139 72.5378C95.0355 70.4065 92.3569 68.99 92.3826 66.8394C92.3826 64.9302 94.6556 62.8891 99.5556 62.8891Z" fill="black"/>
<path d="M143.872 54.1353H134.2C131.196 54.1353 128.962 54.9531 127.642 57.9472L109.056 100.039H122.201C122.201 100.039 124.345 94.3787 124.832 93.1392C126.271 93.1392 139.042 93.1585 140.861 93.1585C141.235 94.7618 142.387 100.039 142.387 100.039H154L143.872 54.1353ZM128.434 83.7383C129.464 81.1016 133.421 70.9023 133.421 70.9023C133.354 71.0279 134.442 68.2463 135.089 66.5174L135.932 70.4774C135.932 70.4774 138.331 81.4429 138.833 83.7383H128.434Z" fill="black"/>
</svg>
