<?xml version="1.0" encoding="utf-8"?>
<!-- Generator: Adobe Illustrator 23.0.0, SVG Export Plug-In . SVG Version: 6.00 Build 0)  -->
<svg version="1.1" id="Capa_1" xmlns="http://www.w3.org/2000/svg" xmlns:xlink="http://www.w3.org/1999/xlink" x="0px" y="0px"
	 viewBox="0 0 484 484" style="enable-background:new 0 0 484 484;" xml:space="preserve">
<g>
	<g>
		<path d="M242,0C108.6,0,0,108.6,0,242s108.6,242,242,242s242-108.6,242-242S375.4,0,242,0z M242,433.9
			c-105.8,0-191.9-86.1-191.9-191.9S136.2,50.1,242,50.1S433.9,136.2,433.9,242S347.8,433.9,242,433.9z"/>
	</g>
</g>
<g>
	<g>
		<path d="M310.5,120.5h-177c-13.2,0-24,10.8-24,24v128c0,13.2,10.8,24,24,24c16.8,0,19,0,19,0h4.9v40c0,7.1,8.6,10.7,13.7,5.7
			c22.3-22.3,6.6-6.6,43.3-43.3c1.5-1.5,3.5-2.3,5.7-2.3h90.4c13.2,0,24-10.8,24-24c0-74.7,0-53.1,0-128
			C334.5,131.3,323.7,120.5,310.5,120.5z M149.5,168.5h113c4.4,0,8,3.6,8,8c0,4.4-3.6,8-8,8h-113c-4.4,0-8-3.6-8-8
			C141.5,172.1,145.1,168.5,149.5,168.5z M230.5,248.5h-81c-4.4,0-8-3.6-8-8s3.6-8,8-8h81c4.4,0,8,3.6,8,8
			C238.5,244.9,235,248.5,230.5,248.5z M294.5,216.5h-145c-4.4,0-8-3.6-8-8s3.6-8,8-8h145c4.4,0,8,3.6,8,8S298.9,216.5,294.5,216.5z
			"/>
	</g>
</g>
<g>
	<g>
		<path d="M358.5,152.5h-7.9v120c0,22-18,40-40.1,40h-86l-17.1,15.9h67.8l45.6,45.8c5,5,13.7,1.5,13.7-5.7v-40.1h24
			c13.2,0,24-10.7,24-23.9v-128C382.5,163.3,371.7,152.5,358.5,152.5z"/>
	</g>
</g>
</svg>
